<?xml version="1.0" standalone="no"?>
<!DOCTYPE svg PUBLIC "-//W3C//DTD SVG 20010904//EN"
 "http://www.w3.org/TR/2001/REC-SVG-20010904/DTD/svg10.dtd">
<svg version="1.0" xmlns="http://www.w3.org/2000/svg"
 width="700.000000pt" height="700.000000pt" viewBox="0 0 700.000000 700.000000"
 preserveAspectRatio="xMidYMid meet">
<metadata>
Created by potrace 1.14, written by Peter Selinger 2001-2017
</metadata>
<g transform="translate(0.000000,700.000000) scale(0.100000,-0.100000)"
fill="#000000" stroke="none">
<path d="M3130 6997 c-3 -3 -32 -7 -65 -11 -56 -6 -76 -9 -150 -21 -200 -34
-463 -104 -645 -173 -337 -127 -649 -302 -929 -520 -183 -142 -391 -342 -516
-493 -301 -364 -489 -691 -644 -1122 -50 -138 -124 -429 -146 -571 -32 -206
-34 -241 -31 -611 2 -209 6 -396 9 -415 6 -35 12 -70 23 -145 3 -22 7 -42 9
-45 2 -3 6 -26 10 -50 3 -25 8 -53 11 -62 3 -9 7 -25 9 -35 20 -100 85 -317
133 -448 73 -201 175 -407 317 -643 35 -58 173 -253 217 -307 305 -373 638
-659 1023 -877 353 -200 792 -355 1170 -412 17 -2 50 -8 75 -12 83 -13 114
-15 311 -21 l197 -5 0 676 0 676 -72 1 c-75 1 -96 3 -191 13 -215 22 -456 89
-653 182 -40 19 -75 34 -77 34 -6 0 -125 69 -185 108 -366 236 -668 595 -827
982 -38 93 -83 224 -83 242 0 12 326 14 2118 13 l2117 0 1 -1460 0 -1460 667
-3 667 -2 -1 1892 c0 1559 -3 1913 -15 2008 -62 508 -201 921 -469 1395 -74
131 -216 329 -343 480 -163 193 -454 461 -637 586 -27 19 -52 37 -55 40 -3 3
-52 35 -110 71 -384 238 -747 383 -1181 472 -68 13 -149 28 -179 32 -30 4 -66
9 -80 12 -31 6 -794 14 -800 9z m550 -1352 c264 -20 535 -96 782 -221 100 -50
313 -182 350 -216 7 -7 40 -35 73 -63 197 -162 395 -410 516 -645 73 -140 97
-199 85 -202 -21 -7 -3974 -3 -3981 4 -12 11 117 265 192 378 283 428 695 736
1185 884 167 50 292 72 473 82 61 4 111 7 113 9 3 3 120 -3 212 -10z"/>
</g>
</svg>
